<svg xmlns="http://www.w3.org/2000/svg" viewBox="0 0 64 64" role="img" aria-label="Benchmarkinator">
  <defs>
    <linearGradient id="bg" x1="8" y1="8" x2="56" y2="56" gradientUnits="userSpaceOnUse">
      <stop stop-color="#2563eb"/>
      <stop offset="1" stop-color="#10b981"/>
    </linearGradient>
  </defs>
  <rect width="64" height="64" rx="14" fill="#0f172a"/>
  <rect x="10" y="10" width="44" height="44" rx="10" fill="url(#bg)"/>
  <path fill="#dbeafe" d="M22 15h4v6h-4zm8 0h4v6h-4zm8 0h4v6h-4zM22 43h4v6h-4zm8 0h4v6h-4zm8 0h4v6h-4zM15 22h6v4h-6zm0 8h6v4h-6zm0 8h6v4h-6zm28-16h6v4h-6zm0 8h6v4h-6zm0 8h6v4h-6z"/>
  <rect x="21" y="21" width="22" height="22" rx="5" fill="#0f172a"/>
  <path fill="#f8fafc" d="M25 35a7 7 0 0 1 14 0h-3a4 4 0 0 0-8 0z"/>
  <path stroke="#34d399" stroke-width="3" stroke-linecap="round" d="M32 34l7-7"/>
</svg>
